<svg xmlns="http://www.w3.org/2000/svg" viewBox="0 0 168 167.83"><defs><style>.cls-1,.cls-2{fill:none;stroke:#5a67d8;stroke-miterlimit:10;}.cls-1{stroke-width:30px;}.cls-2{stroke-width:12px;}.cls-3{fill:#d6bf5b;}</style></defs><g id="Layer_2" data-name="Layer 2"><g id="Layer_1-2" data-name="Layer 1"><path class="cls-1" d="M123.87,152.83H44a29,29,0,0,1-29-29V44A29,29,0,0,1,44,15h79.91a29.2,29.2,0,0,1,24.58,13.63c5.46,8.74,4.58,19.31,1.88,28.81a144.43,144.43,0,0,1-4.55,13.79c-.64,1.62-7.74,14.11-7.39,14.66,10.56,16.35,23.05,41.07,6.78,58A29.73,29.73,0,0,1,123.87,152.83Z"/><path class="cls-2" d="M103,22C82.64,39.82,73.08,61,73,85"/><path class="cls-2" d="M63.35,144.15c6.16-4.69,21.91-18,27.6-41.1a71.92,71.92,0,0,0,1.88-22"/><circle class="cls-3" cx="83.5" cy="85.5" r="16.5"/></g></g></svg>