<svg xmlns="http://www.w3.org/2000/svg" viewBox="0 0 566.96 342.46"><defs><style>.cls-1{font-size:150px;fill:#2d3748;font-family:HWTArtz, HWT Artz;}.cls-2{letter-spacing:-0.03em;}.cls-3,.cls-4{fill:none;stroke:#5a67d8;stroke-miterlimit:10;}.cls-3{stroke-width:30px;}.cls-4{stroke-width:12px;}.cls-5{fill:#d6bf5b;}</style></defs><g id="Layer_2" data-name="Layer 2"><g id="Layer_1-2" data-name="Layer 1"><text class="cls-1" transform="translate(0 312.46)">IMDbud<tspan class="cls-2" x="416.39" y="0">d</tspan><tspan x="486.29" y="0">y</tspan></text><path class="cls-3" d="M323.83,152.83H243.92a29,29,0,0,1-29-29V44a29,29,0,0,1,29-29h79.91A29.17,29.17,0,0,1,348.4,28.63c5.47,8.74,4.59,19.31,1.89,28.81-1.32,4.64-2.79,9.31-4.55,13.79-.64,1.62-7.75,14.11-7.39,14.66,10.55,16.35,23,41.07,6.77,58A29.71,29.71,0,0,1,323.83,152.83Z"/><path class="cls-4" d="M303,22C282.59,39.82,273,61,273,85"/><path class="cls-4" d="M263.31,144.15c6.16-4.69,21.91-18,27.59-41.1a72,72,0,0,0,1.89-22"/><circle class="cls-5" cx="283.46" cy="85.5" r="16.5"/></g></g></svg>